<svg width="22" height="24" viewBox="0 0 22 24" fill="none" xmlns="http://www.w3.org/2000/svg">
<path d="M2.75 8V19C2.75 21.201 4.3945 22 5.5 22H19.25V20H5.511C5.0875 19.988 4.58333 19.806 4.58333 19C4.58333 18.194 5.0875 18.012 5.511 18H19.25V4C19.25 2.897 18.4278 2 17.4167 2H5.5C4.3945 2 2.75 2.799 2.75 5V8ZM5.5 4H17.4167V16H4.58333V5C4.58333 4.194 5.0875 4.012 5.5 4Z" fill="#2EAEBF"/>
<path d="M10.9972 14L14.0681 10.711C14.2574 10.5123 14.408 10.274 14.5109 10.0104C14.6138 9.74668 14.6669 9.46306 14.6669 9.17649C14.6669 8.88991 14.6138 8.60629 14.5109 8.34261C14.408 8.07894 14.2574 7.84064 14.0681 7.64199C13.6864 7.23099 13.1716 7.00055 12.6353 7.00055C12.099 7.00055 11.5843 7.23099 11.2026 7.64199L10.9972 7.85999L10.7919 7.64099C10.4104 7.23005 9.89579 6.99963 9.35962 6.99963C8.82346 6.99963 8.30888 7.23005 7.92733 7.64099C7.73799 7.83963 7.58737 8.07794 7.48448 8.34161C7.38159 8.60529 7.32855 8.88891 7.32855 9.17549C7.32855 9.46206 7.38159 9.74568 7.48448 10.0094C7.58737 10.273 7.73799 10.5113 7.92733 10.71L10.9972 14Z" fill="#47BFCF"/>
</svg>
