<svg width="41" height="35" viewBox="0 0 41 35" fill="none" xmlns="http://www.w3.org/2000/svg">
<path d="M20.5 13.989C20.3301 13.989 20.1671 13.9314 20.047 13.8289C19.9269 13.7263 19.8594 13.5872 19.8594 13.4422V9.04102C19.8594 8.89598 19.9269 8.75688 20.047 8.65432C20.1671 8.55176 20.3301 8.49414 20.5 8.49414C20.6699 8.49414 20.8329 8.55176 20.953 8.65432C21.0731 8.75688 21.1406 8.89598 21.1406 9.04102V13.4422C21.1406 13.5872 21.0731 13.7263 20.953 13.8289C20.8329 13.9314 20.6699 13.989 20.5 13.989Z" fill="#2EAEBF"/>
<path d="M22.9614 25.2209C23.4118 24.811 23.7119 24.2977 23.8248 23.7441C23.9377 23.1906 23.8585 22.6209 23.5969 22.1052C23.3353 21.5896 22.9028 21.1505 22.3526 20.842C21.8024 20.5336 21.1585 20.3693 20.5003 20.3693C19.842 20.3693 19.1981 20.5336 18.6479 20.842C18.0977 21.1505 17.6652 21.5896 17.4036 22.1052C17.142 22.6209 17.0628 23.1906 17.1757 23.7441C17.2886 24.2977 17.5888 24.811 18.0391 25.2209C17.3832 25.5888 16.8426 26.0882 16.4644 26.6753C16.0863 27.2625 15.8821 27.9197 15.8696 28.5896C15.8696 28.7347 15.9371 28.8738 16.0572 28.9763C16.1773 29.0789 16.3403 29.1365 16.5102 29.1365H24.4905C24.6604 29.1365 24.8233 29.0789 24.9434 28.9763C25.0636 28.8738 25.1311 28.7347 25.1311 28.5896C25.1184 27.9197 24.9141 27.2625 24.536 26.6754C24.1578 26.0882 23.6173 25.5889 22.9614 25.2209ZM17.2253 28.0427C17.3197 27.5438 17.5821 27.0791 17.9806 26.7053C18.379 26.3315 18.8963 26.0647 19.4692 25.9375C19.6104 25.9259 19.7432 25.8747 19.8466 25.7919C19.9501 25.7091 20.0185 25.5993 20.0411 25.4798C20.0637 25.3603 20.0392 25.2377 19.9715 25.1313C19.9038 25.0249 19.7967 24.9407 19.6669 24.8918C19.2252 24.7282 18.8631 24.4397 18.6414 24.0748C18.4198 23.71 18.3522 23.2911 18.45 22.8886C18.5479 22.4862 18.8052 22.1249 19.1786 21.8654C19.552 21.606 20.0188 21.4644 20.5003 21.4644C20.9817 21.4644 21.4485 21.606 21.8219 21.8654C22.1954 22.1249 22.4527 22.4862 22.5505 22.8886C22.6484 23.2911 22.5808 23.71 22.3591 24.0748C22.1374 24.4397 21.7753 24.7282 21.3336 24.8918C21.2038 24.9407 21.0967 25.0249 21.029 25.1313C20.9613 25.2377 20.9368 25.3603 20.9594 25.4798C20.982 25.5993 21.0504 25.7091 21.1539 25.7919C21.2574 25.8747 21.3901 25.9259 21.5313 25.9375C22.1043 26.0647 22.6215 26.3315 23.02 26.7053C23.4184 27.0791 23.6809 27.5438 23.7754 28.0427H17.2253Z" fill="#2EAEBF"/>
<path d="M20.5 19.9988C20.3997 19.999 20.3007 19.9789 20.2112 19.9403C20.1216 19.9018 20.044 19.8457 19.9846 19.7767L17.5447 16.9494H9.69573C9.33327 16.9492 8.98571 16.8263 8.72931 16.6076C8.47292 16.3889 8.32863 16.0923 8.32812 15.7828V7.03087C8.3284 6.72131 8.47257 6.4245 8.72899 6.2056C8.9854 5.98671 9.3331 5.86364 9.69573 5.8634H31.3055C31.668 5.86387 32.0154 5.98705 32.2715 6.20593C32.5277 6.4248 32.6717 6.72148 32.6719 7.03087V15.7828C32.6714 16.0921 32.5273 16.3885 32.2712 16.6072C32.0151 16.8259 31.6678 16.9489 31.3055 16.9493H23.4553L21.0154 19.7766C20.956 19.8456 20.8784 19.9017 20.7889 19.9403C20.6993 19.9789 20.6003 19.999 20.5 19.9988ZM9.69573 6.95715L9.60938 15.7828L17.8687 15.8556C17.969 15.8554 18.068 15.8754 18.1576 15.914C18.2471 15.9526 18.3247 16.0087 18.3841 16.0777L20.5 18.5302L22.6159 16.0782C22.6753 16.0091 22.7529 15.953 22.8424 15.9144C22.932 15.8758 23.031 15.8558 23.1313 15.856H31.3057L31.3906 7.03087L9.69573 6.95715Z" fill="#2EAEBF"/>
<path d="M14.6014 9.26459C14.5747 9.22314 14.5441 9.18363 14.5099 9.14647C14.4904 9.13192 14.4694 9.11892 14.4471 9.10764C14.4238 9.09246 14.3988 9.07941 14.3723 9.0687L14.3561 9.06028C14.3365 9.05643 14.3165 9.05387 14.2964 9.05262C14.2683 9.04636 14.2395 9.04269 14.2105 9.04169C14.1814 9.04274 14.1525 9.0464 14.1242 9.05262C14.1043 9.05393 14.0845 9.05649 14.065 9.06028L14.0489 9.0687C14.0223 9.0794 13.997 9.09253 13.9737 9.10786C13.9515 9.11907 13.9306 9.132 13.9112 9.14647C13.895 9.16237 13.8805 9.17942 13.8677 9.19744C13.8489 9.21824 13.8328 9.24077 13.8198 9.26459L13.8106 9.2775L12.383 12.6262C12.3444 12.7168 12.3495 12.8167 12.3973 12.9041C12.445 12.9914 12.5314 13.059 12.6375 13.092C12.7436 13.1249 12.8606 13.1205 12.963 13.0798C13.0653 13.0391 13.1444 12.9653 13.183 12.8747L13.562 11.986H14.8595L15.2384 12.8747C15.257 12.9202 15.286 12.962 15.3237 12.9978C15.3613 13.0336 15.407 13.0626 15.4579 13.0833C15.5088 13.1039 15.564 13.1157 15.6204 13.1179C15.6767 13.1202 15.7329 13.1129 15.7859 13.0964C15.8389 13.08 15.8875 13.0547 15.929 13.0221C15.9704 12.9895 16.0038 12.9501 16.0273 12.9064C16.0508 12.8627 16.0639 12.8154 16.0659 12.7673C16.0678 12.7192 16.0585 12.6712 16.0386 12.6262L14.6106 9.2775L14.6014 9.26459ZM13.872 11.2589L14.2106 10.4642L14.5495 11.2589H13.872Z" fill="#2EAEBF"/>
<path d="M27.665 13.0419C27.7209 13.0403 27.7759 13.0293 27.8269 13.0096C27.8778 12.9898 27.9237 12.9617 27.962 12.9268C28.0002 12.892 28.03 12.851 28.0497 12.8063C28.0694 12.7616 28.0785 12.714 28.0767 12.6663C28.0748 12.6185 28.062 12.5716 28.0388 12.5281C28.0157 12.4846 27.9828 12.4454 27.9419 12.4128C27.9011 12.3801 27.8531 12.3547 27.8007 12.3379C27.7484 12.3211 27.6926 12.3133 27.6367 12.3148C27.429 12.312 27.2225 12.2876 27.0217 12.2422C27.4682 11.8369 27.7346 11.3111 27.7748 10.7558H28.2172C28.2738 10.7566 28.3299 10.7479 28.3825 10.73C28.435 10.7121 28.4828 10.6854 28.5231 10.6516C28.5635 10.6178 28.5955 10.5774 28.6174 10.5329C28.6392 10.4884 28.6505 10.4406 28.6505 10.3923C28.6505 10.344 28.6392 10.2962 28.6174 10.2517C28.5955 10.2072 28.5635 10.1668 28.5231 10.133C28.4828 10.0992 28.435 10.0725 28.3825 10.0546C28.3299 10.0367 28.2738 10.028 28.2172 10.0288H26.7328V9.42537C26.7308 9.33006 26.6851 9.2392 26.6055 9.17238C26.5258 9.10556 26.4186 9.06812 26.307 9.06812C26.1953 9.06812 26.0881 9.10556 26.0084 9.17238C25.9288 9.2392 25.8831 9.33006 25.8811 9.42537V10.0288H24.3962C24.2845 10.0304 24.1781 10.0695 24.0998 10.1375C24.0215 10.2055 23.9777 10.297 23.9777 10.3923C23.9777 10.4876 24.0215 10.5791 24.0998 10.6471C24.1781 10.7151 24.2845 10.7542 24.3962 10.7558H26.9239C26.9013 10.9782 26.8259 11.1943 26.7023 11.3911C26.5787 11.5878 26.4096 11.761 26.2052 11.9002C25.9546 11.7273 25.7666 11.4971 25.6633 11.2365C25.6451 11.1914 25.6166 11.1498 25.5796 11.114C25.5425 11.0783 25.4975 11.0492 25.4473 11.0283C25.397 11.0074 25.3424 10.9951 25.2866 10.9922C25.2308 10.9893 25.1748 10.9959 25.122 11.0114C25.0691 11.027 25.0204 11.0513 24.9785 11.0829C24.9367 11.1146 24.9025 11.1529 24.878 11.1959C24.8536 11.2388 24.8392 11.2854 24.8358 11.333C24.8324 11.3807 24.8401 11.4284 24.8583 11.4735C24.9753 11.7669 25.1641 12.0356 25.4123 12.2618C25.2589 12.3081 25.1022 12.3458 24.943 12.3746C24.84 12.393 24.7487 12.4434 24.6867 12.5159C24.6246 12.5884 24.5963 12.678 24.607 12.7674C24.6177 12.8567 24.6669 12.9395 24.7449 12.9998C24.8229 13.06 24.9243 13.0935 25.0295 13.0937C25.0589 13.0939 25.0882 13.0912 25.1169 13.0858C25.4928 13.0186 25.8555 12.9059 26.1941 12.7511C26.6292 12.9354 27.1067 13.0349 27.5922 13.0425C27.6172 13.0425 27.6418 13.0425 27.665 13.0419Z" fill="#2EAEBF"/>
</svg>
